<mxfile host="65bd71144e">
    <diagram id="abx7U2HMCxDO-u5szK_p" name="Page-1">
        <mxGraphModel dx="2024" dy="787" grid="1" gridSize="10" guides="1" tooltips="1" connect="1" arrows="1" fold="1" page="1" pageScale="1" pageWidth="850" pageHeight="1100" math="0" shadow="0">
            <root>
                <mxCell id="0"/>
                <mxCell id="1" parent="0"/>
                <mxCell id="2" value="Results-support" style="text;strokeColor=none;align=center;fillColor=none;html=1;verticalAlign=middle;whiteSpace=wrap;rounded=0;fontStyle=1;fontSize=13;" parent="1" vertex="1">
                    <mxGeometry x="110" y="200" width="70" height="30" as="geometry"/>
                </mxCell>
                <mxCell id="3" value="Dataset-sharing" style="text;strokeColor=none;align=center;fillColor=none;html=1;verticalAlign=middle;whiteSpace=wrap;rounded=0;fontStyle=1;fontSize=13;" parent="1" vertex="1">
                    <mxGeometry x="320" y="200" width="80" height="30" as="geometry"/>
                </mxCell>
                <mxCell id="4" value="Standard" style="text;strokeColor=none;align=center;fillColor=none;html=1;verticalAlign=middle;whiteSpace=wrap;rounded=0;fontStyle=1;fontSize=13;" parent="1" vertex="1">
                    <mxGeometry x="40" y="320" width="70" height="30" as="geometry"/>
                </mxCell>
                <mxCell id="5" value="Low" style="text;strokeColor=none;align=center;fillColor=none;html=1;verticalAlign=middle;whiteSpace=wrap;rounded=0;fontStyle=1;fontSize=13;" parent="1" vertex="1">
                    <mxGeometry x="120" y="320" width="70" height="30" as="geometry"/>
                </mxCell>
                <mxCell id="6" value="Are you early or late in your study?" style="rounded=0;whiteSpace=wrap;html=1;fontStyle=1;fontSize=13;fillColor=#532565;strokeColor=#000000;fontColor=#FFFFFF;" parent="1" vertex="1">
                    <mxGeometry x="455" y="60" width="150" height="60" as="geometry"/>
                </mxCell>
                <mxCell id="7" value="What is your data sharing orientation?" style="rounded=0;whiteSpace=wrap;html=1;fontStyle=1;fontSize=13;fillColor=#532565;fontColor=#FFFFFF;" parent="1" vertex="1">
                    <mxGeometry x="192.5" y="160" width="120" height="60" as="geometry"/>
                </mxCell>
                <mxCell id="8" value="What is your data sharing orientation?" style="rounded=0;whiteSpace=wrap;html=1;fontStyle=1;fontSize=13;fillColor=#532565;fontColor=#FFFFFF;" parent="1" vertex="1">
                    <mxGeometry x="747.5" y="160" width="120" height="60" as="geometry"/>
                </mxCell>
                <mxCell id="9" value="What level of resources do you have for data sharing?" style="rounded=0;whiteSpace=wrap;html=1;fontStyle=1;fontSize=13;fillColor=#532565;fontColor=#FFFFFF;" parent="1" vertex="1">
                    <mxGeometry x="35" y="260" width="150" height="60" as="geometry"/>
                </mxCell>
                <mxCell id="13" value="" style="strokeWidth=1;html=1;shape=mxgraph.flowchart.annotation_2;align=left;labelPosition=right;pointerEvents=1;direction=south;" parent="1" vertex="1">
                    <mxGeometry x="250" y="120" width="560" height="40" as="geometry"/>
                </mxCell>
                <mxCell id="14" value="" style="strokeWidth=1;html=1;shape=mxgraph.flowchart.annotation_2;align=left;labelPosition=right;pointerEvents=1;direction=south;fillStyle=auto;" parent="1" vertex="1">
                    <mxGeometry x="110" y="220" width="280" height="40" as="geometry"/>
                </mxCell>
                <mxCell id="15" value="" style="strokeWidth=1;html=1;shape=mxgraph.flowchart.annotation_2;align=left;labelPosition=right;pointerEvents=1;direction=south;" parent="1" vertex="1">
                    <mxGeometry x="670" y="220" width="280" height="40" as="geometry"/>
                </mxCell>
                <mxCell id="16" value="" style="edgeStyle=none;html=1;" parent="1" source="19" target="20" edge="1">
                    <mxGeometry relative="1" as="geometry"/>
                </mxCell>
                <mxCell id="17" value="" style="edgeStyle=none;html=1;" parent="1" source="19" target="20" edge="1">
                    <mxGeometry relative="1" as="geometry"/>
                </mxCell>
                <mxCell id="18" value="" style="edgeStyle=none;html=1;" parent="1" source="19" edge="1">
                    <mxGeometry relative="1" as="geometry">
                        <mxPoint x="75" y="380" as="targetPoint"/>
                    </mxGeometry>
                </mxCell>
                <mxCell id="19" value="" style="strokeWidth=1;html=1;shape=mxgraph.flowchart.annotation_2;align=left;labelPosition=right;pointerEvents=1;direction=south;shadow=0;strokeColor=default;" parent="1" vertex="1">
                    <mxGeometry x="40" y="320" width="140" height="60" as="geometry"/>
                </mxCell>
                <UserObject label="Early&lt;br&gt;Results-support&lt;br&gt;Low resources" link="early-res-low" id="20">
                    <mxCell style="rounded=0;whiteSpace=wrap;html=1;fontStyle=1;fillColor=#982568;opacity=50;" parent="1" vertex="1">
                        <mxGeometry x="120" y="380" width="120" height="60" as="geometry"/>
                    </mxCell>
                </UserObject>
                <UserObject label="Early&lt;br&gt;Dataset-sharing&lt;br&gt;Standard resources" link="early-data-stand" id="21">
                    <mxCell style="rounded=0;whiteSpace=wrap;html=1;fontStyle=1;fillColor=#982568;opacity=50;" parent="1" vertex="1">
                        <mxGeometry x="260" y="380" width="120" height="60" as="geometry"/>
                    </mxCell>
                </UserObject>
                <UserObject label="Early&lt;br&gt;Dataset-sharing&lt;br&gt;Low resources" link="early-data-low" id="22">
                    <mxCell style="rounded=0;whiteSpace=wrap;html=1;fontStyle=1;fillColor=#982568;opacity=50;" parent="1" vertex="1">
                        <mxGeometry x="400" y="380" width="120" height="60" as="geometry"/>
                    </mxCell>
                </UserObject>
                <UserObject label="Late&lt;br&gt;Results-support&lt;br&gt;Standard resources" link="late-res-stand" id="23">
                    <mxCell style="rounded=0;whiteSpace=wrap;html=1;fontStyle=1;fillColor=#982568;opacity=50;" parent="1" vertex="1">
                        <mxGeometry x="545" y="380" width="120" height="60" as="geometry"/>
                    </mxCell>
                </UserObject>
                <UserObject label="Late&lt;br&gt;Results-support&lt;br&gt;Low resources" link="late-res-low" id="24">
                    <mxCell style="rounded=0;whiteSpace=wrap;html=1;fontStyle=1;fillColor=#982568;opacity=50;" parent="1" vertex="1">
                        <mxGeometry x="680" y="380" width="120" height="60" as="geometry"/>
                    </mxCell>
                </UserObject>
                <UserObject label="Late&lt;br&gt;Dataset-sharing&lt;br&gt;Standard resources" link="late-data-stand" id="25">
                    <mxCell style="rounded=0;whiteSpace=wrap;html=1;fontStyle=1;fillColor=#982568;opacity=50;" parent="1" vertex="1">
                        <mxGeometry x="820" y="380" width="120" height="60" as="geometry"/>
                    </mxCell>
                </UserObject>
                <UserObject label="Late&lt;br&gt;Dataset-sharing&lt;br&gt;Low resources" link="late-data-low" id="26">
                    <mxCell style="rounded=0;whiteSpace=wrap;html=1;fontStyle=1;fillColor=#982568;opacity=50;" parent="1" vertex="1">
                        <mxGeometry x="960" y="380" width="120" height="60" as="geometry"/>
                    </mxCell>
                </UserObject>
                <mxCell id="27" value="" style="strokeWidth=1;html=1;shape=mxgraph.flowchart.annotation_2;align=left;labelPosition=right;pointerEvents=1;direction=south;" parent="1" vertex="1">
                    <mxGeometry x="320" y="320" width="140" height="60" as="geometry"/>
                </mxCell>
                <mxCell id="28" value="" style="strokeWidth=1;html=1;shape=mxgraph.flowchart.annotation_2;align=left;labelPosition=right;pointerEvents=1;direction=south;" parent="1" vertex="1">
                    <mxGeometry x="600" y="320" width="140" height="60" as="geometry"/>
                </mxCell>
                <mxCell id="29" value="" style="strokeWidth=1;html=1;shape=mxgraph.flowchart.annotation_2;align=left;labelPosition=right;pointerEvents=1;direction=south;" parent="1" vertex="1">
                    <mxGeometry x="880" y="320" width="140" height="60" as="geometry"/>
                </mxCell>
                <mxCell id="30" value="Early" style="text;strokeColor=none;align=center;fillColor=none;html=1;verticalAlign=middle;whiteSpace=wrap;rounded=0;fontStyle=1;fontSize=13;" parent="1" vertex="1">
                    <mxGeometry x="330" y="110" width="60" height="30" as="geometry"/>
                </mxCell>
                <mxCell id="31" value="Late" style="text;strokeColor=none;align=center;fillColor=none;html=1;verticalAlign=middle;whiteSpace=wrap;rounded=0;fontStyle=1;fontSize=13;" parent="1" vertex="1">
                    <mxGeometry x="680" y="110" width="60" height="30" as="geometry"/>
                </mxCell>
                <mxCell id="32" value="Results-support" style="text;strokeColor=none;align=center;fillColor=none;html=1;verticalAlign=middle;whiteSpace=wrap;rounded=0;fontStyle=1;fontSize=13;" parent="1" vertex="1">
                    <mxGeometry x="662.5" y="200" width="70" height="30" as="geometry"/>
                </mxCell>
                <mxCell id="33" value="Dataset-sharing" style="text;strokeColor=none;align=center;fillColor=none;html=1;verticalAlign=middle;whiteSpace=wrap;rounded=0;fontStyle=1;fontSize=13;" parent="1" vertex="1">
                    <mxGeometry x="872.5" y="200" width="80" height="30" as="geometry"/>
                </mxCell>
                <mxCell id="34" value="Standard" style="text;strokeColor=none;align=center;fillColor=none;html=1;verticalAlign=middle;whiteSpace=wrap;rounded=0;fontStyle=1;fontSize=13;" parent="1" vertex="1">
                    <mxGeometry x="322.5" y="320" width="70" height="30" as="geometry"/>
                </mxCell>
                <mxCell id="35" value="Low" style="text;strokeColor=none;align=center;fillColor=none;html=1;verticalAlign=middle;whiteSpace=wrap;rounded=0;fontStyle=1;fontSize=13;" parent="1" vertex="1">
                    <mxGeometry x="387.5" y="320" width="70" height="30" as="geometry"/>
                </mxCell>
                <mxCell id="36" value="Standard" style="text;strokeColor=none;align=center;fillColor=none;html=1;verticalAlign=middle;whiteSpace=wrap;rounded=0;fontStyle=1;fontSize=13;" parent="1" vertex="1">
                    <mxGeometry x="600" y="320" width="70" height="30" as="geometry"/>
                </mxCell>
                <mxCell id="37" value="Low" style="text;strokeColor=none;align=center;fillColor=none;html=1;verticalAlign=middle;whiteSpace=wrap;rounded=0;fontStyle=1;fontSize=13;" parent="1" vertex="1">
                    <mxGeometry x="665" y="320" width="70" height="30" as="geometry"/>
                </mxCell>
                <mxCell id="38" value="Standard" style="text;strokeColor=none;align=center;fillColor=none;html=1;verticalAlign=middle;whiteSpace=wrap;rounded=0;fontStyle=1;fontSize=13;" parent="1" vertex="1">
                    <mxGeometry x="880" y="320" width="70" height="30" as="geometry"/>
                </mxCell>
                <mxCell id="39" value="Low" style="text;strokeColor=none;align=center;fillColor=none;html=1;verticalAlign=middle;whiteSpace=wrap;rounded=0;fontStyle=1;fontSize=13;" parent="1" vertex="1">
                    <mxGeometry x="945" y="320" width="70" height="30" as="geometry"/>
                </mxCell>
                <UserObject label="Early&lt;br&gt;Results-support&lt;br&gt;Standard resources" link="early-res-stand" id="40">
                    <mxCell style="rounded=0;whiteSpace=wrap;html=1;fontStyle=1;fillColor=#982568;opacity=50;" parent="1" vertex="1">
                        <mxGeometry x="-20" y="380" width="120" height="60" as="geometry"/>
                    </mxCell>
                </UserObject>
                <mxCell id="41" value="" style="strokeWidth=1;html=1;shape=mxgraph.flowchart.annotation_2;align=left;labelPosition=right;pointerEvents=1;direction=south;shadow=0;strokeColor=default;" parent="1" vertex="1">
                    <mxGeometry x="40" y="320" width="140" height="60" as="geometry"/>
                </mxCell>
                <mxCell id="42" value="" style="strokeWidth=1;html=1;shape=mxgraph.flowchart.annotation_2;align=left;labelPosition=right;pointerEvents=1;direction=south;" parent="1" vertex="1">
                    <mxGeometry x="320" y="320" width="140" height="60" as="geometry"/>
                </mxCell>
                <mxCell id="44" value="" style="strokeWidth=1;html=1;shape=mxgraph.flowchart.annotation_2;align=left;labelPosition=right;pointerEvents=1;direction=south;fontSize=13;" parent="1" vertex="1">
                    <mxGeometry x="320" y="320" width="140" height="60" as="geometry"/>
                </mxCell>
                <mxCell id="45" value="" style="strokeWidth=1;html=1;shape=mxgraph.flowchart.annotation_2;align=left;labelPosition=right;pointerEvents=1;direction=south;" parent="1" vertex="1">
                    <mxGeometry x="880" y="320" width="140" height="60" as="geometry"/>
                </mxCell>
                <mxCell id="46" value="" style="strokeWidth=1;html=1;shape=mxgraph.flowchart.annotation_2;align=left;labelPosition=right;pointerEvents=1;direction=south;fillStyle=auto;" parent="1" vertex="1">
                    <mxGeometry x="110" y="220" width="280" height="40" as="geometry"/>
                </mxCell>
                <mxCell id="43" value="" style="strokeWidth=1;html=1;shape=mxgraph.flowchart.annotation_2;align=left;labelPosition=right;pointerEvents=1;direction=south;shadow=0;strokeColor=default;" parent="1" vertex="1">
                    <mxGeometry x="40" y="320" width="140" height="60" as="geometry"/>
                </mxCell>
                <mxCell id="47" value="What level of resources do you have for data sharing?" style="rounded=0;whiteSpace=wrap;html=1;fontStyle=1;fontSize=13;fillColor=#532565;fontColor=#FFFFFF;" vertex="1" parent="1">
                    <mxGeometry x="312.5" y="260" width="150" height="60" as="geometry"/>
                </mxCell>
                <mxCell id="48" value="What level of resources do you have for data sharing?" style="rounded=0;whiteSpace=wrap;html=1;fontStyle=1;fontSize=13;fillColor=#532565;fontColor=#FFFFFF;" vertex="1" parent="1">
                    <mxGeometry x="595" y="260" width="150" height="60" as="geometry"/>
                </mxCell>
                <mxCell id="49" value="What level of resources do you have for data sharing?" style="rounded=0;whiteSpace=wrap;html=1;fontStyle=1;fontSize=13;fillColor=#532565;fontColor=#FFFFFF;" vertex="1" parent="1">
                    <mxGeometry x="875" y="260" width="150" height="60" as="geometry"/>
                </mxCell>
            </root>
        </mxGraphModel>
    </diagram>
</mxfile>